<?xml version="1.0" encoding="UTF-8"?>
<!-- Generator: Adobe Illustrator 24.1.3, SVG Export Plug-In . SVG Version: 6.00 Build 0)  -->
<svg version="1.1" id="Layer_1" xmlns="http://www.w3.org/2000/svg" xmlns:xlink="http://www.w3.org/1999/xlink" x="0px" y="0px" viewBox="0 0 280.9 527" style="enable-background:new 0 0 280.9 527;" xml:space="preserve">
<style type="text/css">
	.st0{fill:#FFFFFF;}
</style>
<path class="st0" d="M275.8,251.3L29.6,5.1C26.3,1.8,22,0,17.2,0C12.6,0,8.3,1.8,5.1,5.1C1.8,8.3,0,12.6,0,17.2  c0,4.7,1.8,9.1,5.1,12.4L239,263.5L5.1,497.4c-3.3,3.3-5.1,7.6-5.1,12.3c0,4.6,1.8,9,5.1,12.3c3.3,3.3,7.6,5,12.3,5  c4.6,0,9-1.8,12.3-5l246.2-246.2c3.2-3.2,5.1-7.7,5.1-12.2C280.9,258.8,279.1,254.4,275.8,251.3z"/>
</svg>